<svg width="176" height="36" viewBox="0 0 176 36" fill="none" xmlns="http://www.w3.org/2000/svg">
<path d="M152.866 25.7486L155.732 9.66857L160.048 6H172.478L176 10.2171L173.1 26.4686L168.887 30H156.388L152.866 25.7486ZM166.712 26.0229L168.784 24.2743L171.028 11.7257L169.578 9.97714H162.154L160.083 11.7257L157.804 24.2743L159.254 26.0229H166.712Z" fill="black"/>
<path d="M135.457 6H140.153L138.392 16.0457H141.741L149.337 6H154.896L145.712 17.9657L151.236 30H146.23L141.637 20.0229H137.667L135.906 30H131.21L135.457 6Z" fill="black"/>
<path d="M126.087 6H130.783L126.502 30H121.806L126.087 6Z" fill="black"/>
<path d="M110.55 9.94286H103.334L104.025 6H123.153L122.428 9.94286H115.246L111.69 30H106.994L110.55 9.94286Z" fill="black"/>
<path d="M79.4273 25.7486L82.2931 9.66857L86.6091 6H98.3831L101.87 10.1486L101.249 13.5429H96.5531L96.8984 11.5886L95.5863 9.97714H88.6807L86.6091 11.7257L84.3648 24.2743L85.8149 26.0229H92.7205L94.6195 24.4114L94.9993 22.4571H99.6951L98.97 26.4L94.7231 30H82.9491L79.4273 25.7486Z" fill="black"/>
<path d="M68.2114 6H72.4928L77.085 30H72.3202L71.3534 24.6857H62.8595L59.8902 30H55.1253L68.2114 6ZM70.9045 20.8457L69.3508 11.7257H69.2817L64.5169 20.8457H70.9045Z" fill="black"/>
<path d="M49.2163 9.94286H42L42.6906 6H61.819L61.0939 9.94286H53.9121L50.3557 30H45.66L49.2163 9.94286Z" fill="black"/>
<path d="M17.9972 0C8.0716 0 0 8.0716 0 17.9972C0 27.9228 8.0716 36 17.9972 36C27.9228 36 36 27.9228 36 17.9972C36 8.0716 27.9228 0 17.9972 0ZM18.5624 1.14178C27.4197 1.4357 34.5643 8.58031 34.8582 17.4376H28.861C28.5784 11.887 24.113 7.42723 18.5624 7.13895V1.14178ZM17.4376 1.14178V7.13895C11.887 7.42157 7.42723 11.887 7.13895 17.4376H1.14178C1.43005 8.58031 8.58031 1.43005 17.4376 1.14178ZM17.4376 34.8582C8.58031 34.5643 1.43005 27.4197 1.14178 18.5624H7.13895C7.42157 24.113 11.887 28.5728 17.4376 28.861V34.8582ZM8.25247 17.9972C8.25247 12.6218 12.6274 8.24682 18.0028 8.24682C23.3782 8.24682 27.7532 12.6218 27.7532 17.9972C27.7532 23.3726 23.3782 27.7475 18.0028 27.7475C12.6218 27.7475 8.25247 23.3726 8.25247 17.9972ZM18.5624 34.8582V28.861C24.113 28.5784 28.5728 24.113 28.861 18.5624H34.8582C34.5643 27.4197 27.4197 34.5643 18.5624 34.8582Z" fill="#8E8B5E"/>
<path d="M18.0028 9.85775C13.5148 9.85775 9.8634 13.5092 9.8634 17.9972C9.8634 22.4852 13.5148 26.1366 18.0028 26.1366C22.4852 26.1366 26.1366 22.4852 26.1366 17.9972C26.1366 13.5148 22.4852 9.85775 18.0028 9.85775ZM18.0028 24.6896C14.3062 24.6896 11.3104 21.6938 11.3104 17.9972C11.3104 14.3062 14.3005 11.3048 18.0028 11.3048C21.6995 11.3048 24.6952 14.3005 24.6952 17.9972C24.6896 21.6938 21.6995 24.6896 18.0028 24.6896Z" fill="#8E8B5E"/>
<path d="M19.2407 16.3071L18.0028 13.7918L16.765 16.3071L13.9896 16.7084L15.9962 18.6642L15.5214 21.4225L18.0028 20.1168L20.4786 21.4225L20.0094 18.6642L22.0104 16.7084L19.2407 16.3071Z" fill="#8E8B5E"/>
</svg>
